<?xml version="1.0" standalone="no"?><!-- Generator: Gravit.io --><svg xmlns="http://www.w3.org/2000/svg" xmlns:xlink="http://www.w3.org/1999/xlink" style="isolation:isolate" viewBox="0 0 70.866 70.866" width="70.866" height="70.866"><defs><clipPath id="_clipPath_Mh3DhOFKCnI4MaRNmOlwUBlwVqYi1QhU"><rect width="70.866" height="70.866"/></clipPath></defs><g clip-path="url(#_clipPath_Mh3DhOFKCnI4MaRNmOlwUBlwVqYi1QhU)"><path d=" M 28.063 0.933 C 28.063 0.575 27.772 0.283 27.413 0.283 L 15.107 0.283 C 14.748 0.283 14.457 0.575 14.457 0.933 L 14.457 13.24 C 14.457 13.599 14.748 13.89 15.107 13.89 L 27.413 13.89 C 27.772 13.89 28.063 13.599 28.063 13.24 L 28.063 0.933 Z " fill-rule="evenodd" fill="rgb(255,153,0)" vector-effect="non-scaling-stroke" stroke-width="0.098" stroke="rgb(255,153,0)" stroke-linejoin="round" stroke-linecap="butt" stroke-miterlimit="1.414"/><path d=" M 28.063 0.933 C 28.063 0.575 27.772 0.283 27.413 0.283 L 15.107 0.283 C 14.748 0.283 14.457 0.575 14.457 0.933 L 14.457 13.24 C 14.457 13.599 14.748 13.89 15.107 13.89 L 27.413 13.89 C 27.772 13.89 28.063 13.599 28.063 13.24 L 28.063 0.933 Z " fill-rule="evenodd" fill="rgb(255,0,0)" vector-effect="non-scaling-stroke" stroke-width="0.098" stroke="rgb(255,0,0)" stroke-linejoin="round" stroke-linecap="butt" stroke-miterlimit="1.414"/><path d=" M 28.063 15.107 C 28.063 14.748 27.772 14.457 27.413 14.457 L 15.107 14.457 C 14.748 14.457 14.457 14.748 14.457 15.107 L 14.457 27.413 C 14.457 27.772 14.748 28.063 15.107 28.063 L 27.413 28.063 C 27.772 28.063 28.063 27.772 28.063 27.413 L 28.063 15.107 Z " fill-rule="evenodd" fill="rgb(255,0,0)" vector-effect="non-scaling-stroke" stroke-width="0.098" stroke="rgb(255,0,0)" stroke-linejoin="round" stroke-linecap="butt" stroke-miterlimit="1.414"/><path d=" M 28.063 29.28 C 28.063 28.921 27.772 28.63 27.413 28.63 L 15.107 28.63 C 14.748 28.63 14.457 28.921 14.457 29.28 L 14.457 41.586 C 14.457 41.945 14.748 42.236 15.107 42.236 L 27.413 42.236 C 27.772 42.236 28.063 41.945 28.063 41.586 L 28.063 29.28 Z " fill-rule="evenodd" fill="rgb(0,150,136)" vector-effect="non-scaling-stroke" stroke-width="0.098" stroke="rgb(0,150,136)" stroke-linejoin="round" stroke-linecap="butt" stroke-miterlimit="1.414"/><path d=" M 28.063 43.453 C 28.063 43.094 27.772 42.803 27.413 42.803 L 15.107 42.803 C 14.748 42.803 14.457 43.094 14.457 43.453 L 14.457 55.76 C 14.457 56.118 14.748 56.409 15.107 56.409 L 27.413 56.409 C 27.772 56.409 28.063 56.118 28.063 55.76 L 28.063 43.453 Z " fill-rule="evenodd" fill="rgb(0,150,136)" vector-effect="non-scaling-stroke" stroke-width="0.098" stroke="rgb(0,150,136)" stroke-linejoin="round" stroke-linecap="butt" stroke-miterlimit="1.414"/><path d=" M 70.583 15.107 C 70.583 14.748 70.292 14.457 69.932 14.457 L 57.626 14.457 C 57.268 14.457 56.976 14.748 56.976 15.107 L 56.976 27.413 C 56.976 27.772 57.268 28.063 57.626 28.063 L 69.932 28.063 C 70.292 28.063 70.583 27.772 70.583 27.413 L 70.583 15.107 Z " fill-rule="evenodd" fill="rgb(153,0,255)" vector-effect="non-scaling-stroke" stroke-width="0.098" stroke="rgb(153,0,255)" stroke-linejoin="round" stroke-linecap="butt" stroke-miterlimit="1.414"/><path d=" M 70.583 29.28 C 70.583 28.921 70.292 28.63 69.932 28.63 L 57.626 28.63 C 57.268 28.63 56.976 28.921 56.976 29.28 L 56.976 41.586 C 56.976 41.945 57.268 42.236 57.626 42.236 L 69.932 42.236 C 70.292 42.236 70.583 41.945 70.583 41.586 L 70.583 29.28 Z " fill-rule="evenodd" fill="rgb(153,0,255)" vector-effect="non-scaling-stroke" stroke-width="0.098" stroke="rgb(153,0,255)" stroke-linejoin="round" stroke-linecap="butt" stroke-miterlimit="1.414"/><path d=" M 70.583 43.453 C 70.583 43.094 70.292 42.803 69.932 42.803 L 57.626 42.803 C 57.268 42.803 56.976 43.094 56.976 43.453 L 56.976 55.76 C 56.976 56.118 57.268 56.409 57.626 56.409 L 69.932 56.409 C 70.292 56.409 70.583 56.118 70.583 55.76 L 70.583 43.453 Z " fill-rule="evenodd" fill="rgb(255,153,0)" vector-effect="non-scaling-stroke" stroke-width="0.098" stroke="rgb(255,153,0)" stroke-linejoin="round" stroke-linecap="butt" stroke-miterlimit="1.414"/><path d=" M 56.409 43.453 C 56.409 43.094 56.118 42.803 55.759 42.803 L 43.453 42.803 C 43.094 42.803 42.803 43.094 42.803 43.453 L 42.803 55.76 C 42.803 56.118 43.094 56.409 43.453 56.409 L 55.759 56.409 C 56.118 56.409 56.409 56.118 56.409 55.76 L 56.409 43.453 Z " fill-rule="evenodd" fill="rgb(255,153,0)" vector-effect="non-scaling-stroke" stroke-width="0.098" stroke="rgb(255,153,0)" stroke-linejoin="round" stroke-linecap="butt" stroke-miterlimit="1.414"/><path d=" M 28.063 57.626 C 28.063 57.268 27.772 56.976 27.413 56.976 L 15.107 56.976 C 14.748 56.976 14.457 57.268 14.457 57.626 L 14.457 69.933 C 14.457 70.292 14.748 70.583 15.107 70.583 L 27.413 70.583 C 27.772 70.583 28.063 70.292 28.063 69.933 L 28.063 57.626 Z " fill-rule="evenodd" fill="rgb(0,150,136)" vector-effect="non-scaling-stroke" stroke-width="0.098" stroke="rgb(0,150,136)" stroke-linejoin="round" stroke-linecap="butt" stroke-miterlimit="1.414"/><path d=" M 13.89 57.626 C 13.89 57.268 13.599 56.976 13.239 56.976 L 0.933 56.976 C 0.575 56.976 0.283 57.268 0.283 57.626 L 0.283 69.933 C 0.283 70.292 0.575 70.583 0.933 70.583 L 13.239 70.583 C 13.599 70.583 13.89 70.292 13.89 69.933 L 13.89 57.626 Z " fill-rule="evenodd" fill="rgb(0,150,136)" vector-effect="non-scaling-stroke" stroke-width="0.098" stroke="rgb(0,150,136)" stroke-linejoin="round" stroke-linecap="butt" stroke-miterlimit="1.414"/><path d=" M 56.409 0.933 C 56.409 0.575 56.118 0.283 55.759 0.283 L 43.453 0.283 C 43.094 0.283 42.803 0.575 42.803 0.933 L 42.803 13.24 C 42.803 13.599 43.094 13.89 43.453 13.89 L 55.759 13.89 C 56.118 13.89 56.409 13.599 56.409 13.24 L 56.409 0.933 Z " fill-rule="evenodd" fill="rgb(153,0,255)" vector-effect="non-scaling-stroke" stroke-width="0.098" stroke="rgb(153,0,255)" stroke-linejoin="round" stroke-linecap="butt" stroke-miterlimit="1.414"/><path d=" M 70.583 0.933 C 70.583 0.575 70.292 0.283 69.932 0.283 L 57.626 0.283 C 57.268 0.283 56.976 0.575 56.976 0.933 L 56.976 13.24 C 56.976 13.599 57.268 13.89 57.626 13.89 L 69.932 13.89 C 70.292 13.89 70.583 13.599 70.583 13.24 L 70.583 0.933 Z " fill-rule="evenodd" fill="rgb(153,0,255)" vector-effect="non-scaling-stroke" stroke-width="0.098" stroke="rgb(153,0,255)" stroke-linejoin="round" stroke-linecap="butt" stroke-miterlimit="1.414"/><path d=" M 42.236 0.933 C 42.236 0.575 41.945 0.283 41.586 0.283 L 29.28 0.283 C 28.921 0.283 28.63 0.575 28.63 0.933 L 28.63 13.24 C 28.63 13.599 28.921 13.89 29.28 13.89 L 41.586 13.89 C 41.945 13.89 42.236 13.599 42.236 13.24 L 42.236 0.933 Z " fill-rule="evenodd" fill="rgb(255,0,0)" vector-effect="non-scaling-stroke" stroke-width="0.098" stroke="rgb(255,0,0)" stroke-linejoin="round" stroke-linecap="butt" stroke-miterlimit="1.414"/></g></svg>